<svg width="22" height="23" viewBox="0 0 22 23" fill="none" xmlns="http://www.w3.org/2000/svg">
<path d="M1 11.7756H15M15 11.7756L11.5 8.70117M15 11.7756L11.5 14.8501" stroke="black" stroke-width="1.5" stroke-linecap="round" stroke-linejoin="round"/>
<path d="M8.00098 6.65253C8.01298 4.42355 8.10998 3.21632 8.87798 2.42926C9.75698 1.52844 11.171 1.52844 13.999 1.52844H14.999C17.828 1.52844 19.242 1.52844 20.121 2.42926C20.999 3.32905 20.999 4.77916 20.999 7.67735V15.8759C20.999 18.7741 20.999 20.2242 20.121 21.124C19.241 22.0248 17.828 22.0248 14.999 22.0248H13.999C11.171 22.0248 9.75698 22.0248 8.87798 21.124C8.10998 20.3369 8.01298 19.1297 8.00098 16.9007" stroke="black" stroke-width="1.5" stroke-linecap="round"/>
</svg>
